<svg width="800" height="800" viewBox="0 0 800 800" fill="none" xmlns="http://www.w3.org/2000/svg">
<g clip-path="url(#clip0_679_105)">
<mask id="mask0_679_105" style="mask-type:luminance" maskUnits="userSpaceOnUse" x="40" y="317" width="720" height="166">
<path d="M759.82 317.758H40.1719V482.249H759.82V317.758Z" fill="white"/>
</mask>
<g mask="url(#mask0_679_105)">
<mask id="mask1_679_105" style="mask-type:luminance" maskUnits="userSpaceOnUse" x="40" y="317" width="719" height="165">
<path d="M758.684 317.76H40.1719V481.923H758.684V317.76Z" fill="white"/>
</mask>
<g mask="url(#mask1_679_105)">
<mask id="mask2_679_105" style="mask-type:alpha" maskUnits="userSpaceOnUse" x="40" y="319" width="163" height="162">
<path d="M198.287 338.694C200.99 340.254 202.654 343.137 202.654 346.258V383.073C202.654 386.196 200.988 389.078 198.287 390.643L166.401 409.047C163.699 410.607 162.034 413.49 162.034 416.611V453.434C162.034 456.555 160.369 459.438 157.666 460.998L125.78 479.407C123.077 480.967 119.749 480.967 117.046 479.407L85.1597 460.998C82.4572 459.438 80.7924 456.555 80.7924 453.434V416.61C80.7924 413.49 79.1277 410.607 76.4252 409.047L44.5391 390.638C41.8367 389.078 40.1719 386.195 40.1719 383.074V346.258C40.1719 343.137 41.8367 340.254 44.5391 338.694L76.4257 320.285C79.1278 318.725 82.4571 318.725 85.1593 320.285L117.046 338.694C119.749 340.254 123.077 340.254 125.78 338.694L157.666 320.285C160.369 318.725 163.698 318.725 166.401 320.285L198.287 338.694Z" fill="#2A3151"/>
</mask>
<g mask="url(#mask2_679_105)">
<path d="M80.7926 364.666L40.1719 388.118L121.413 435.023L162.034 411.57L80.7926 364.666Z" fill="#444CE7"/>
<path d="M162.036 317.76L121.414 341.212L162.036 364.665L202.656 341.212L162.036 317.76Z" fill="#8098F9"/>
<path d="M80.7924 364.664L40.1719 388.117L40.1719 341.212L80.7926 317.76L80.7924 364.664Z" fill="#8098F9"/>
<path d="M121.394 435.023V481.927L80.7737 458.475L80.7734 411.57L121.394 435.023Z" fill="#2D31A6"/>
<path d="M121.414 435.023L162.035 411.57V458.475L121.414 481.927V435.023Z" fill="#8098F9"/>
<path d="M80.7737 364.664L162.015 411.569L198.269 390.638C200.971 389.077 202.635 386.194 202.635 383.074V341.212L162.015 364.664L80.7734 317.76L80.7737 364.664Z" fill="url(#paint0_linear_679_105)"/>
</g>
<path d="M739.486 430.494L739.615 428.568H757.719C757.462 443.856 748.091 456.574 725.875 456.574C702.25 456.574 691.594 441.671 691.594 422.401V418.547C691.594 399.276 702.25 384.373 725.875 384.373C748.091 384.373 757.462 397.22 757.719 411.738H739.615L739.486 409.811C739.229 404.8 735.508 400.174 725.875 400.174C715.09 400.174 711.112 405.314 711.112 416.619V424.328C711.112 435.634 715.09 440.901 725.875 440.901C735.508 440.901 739.229 435.762 739.486 430.494Z" fill="#1F235B"/>
<path d="M683.603 386.039V454.9H664.727V401.456H639.946V454.9H621.07V386.039H683.603Z" fill="#1F235B"/>
<path d="M569.347 363.299C592.206 363.299 612.361 376.403 612.361 407.237V412.632C612.361 443.465 592.206 456.569 569.347 456.569C546.494 456.569 526.336 443.465 526.336 412.632V407.237C526.336 376.403 546.494 363.299 569.347 363.299ZM546.879 415.587C546.879 431.646 553.814 439.226 569.347 439.226C584.757 439.226 591.82 431.646 591.82 415.587V404.282C591.82 388.223 584.757 380.643 569.347 380.643C553.814 380.643 546.879 388.223 546.879 404.282V415.587Z" fill="#1F235B"/>
<path d="M521.381 386.039V401.456H500.067V454.9H481.064V401.456H459.75V386.039H521.381Z" fill="#1F235B"/>
<path d="M439.534 430.494L439.662 428.568H457.766C457.509 443.856 448.136 456.574 425.923 456.574C402.299 456.574 391.641 441.672 391.641 422.401V418.547C391.641 399.276 402.299 384.373 425.923 384.373C448.136 384.373 457.509 397.22 457.766 411.738H439.662L439.534 409.811C439.277 404.8 435.553 400.175 425.923 400.175C415.138 400.175 411.157 405.314 411.157 416.619V424.328C411.157 435.634 415.138 440.901 425.923 440.901C435.553 440.901 439.277 435.762 439.534 430.494Z" fill="#1F235B"/>
<path d="M349.868 456.574C325.858 456.574 315.586 441.672 315.586 422.401V418.547C315.586 399.276 326.5 384.373 350.253 384.373C373.623 384.373 382.995 397.862 382.995 417.648V423.557H334.204V424.328C334.204 436.019 338.698 441.286 350.253 441.286C360.525 441.286 364.506 436.533 364.763 432.293L364.891 430.366H382.995C382.738 444.113 372.98 456.574 349.868 456.574ZM334.332 412.38H364.763C363.864 403.002 359.884 398.762 349.868 398.762C339.596 398.762 335.102 403.002 334.332 412.38Z" fill="#1F235B"/>
<path d="M273.587 454.896V382.18H244.055V364.965H322.378V382.18H293.103V454.896H273.587Z" fill="#1F235B"/>
<path fill-rule="evenodd" clip-rule="evenodd" d="M739.621 428.562L739.492 430.489C739.235 435.756 735.514 440.895 725.886 440.895C715.096 440.895 711.118 435.628 711.118 424.322V416.614C711.118 405.309 715.096 400.169 725.886 400.169C735.514 400.169 739.235 404.795 739.492 409.805L739.621 411.732H757.725C757.72 411.418 757.71 411.105 757.694 410.794C757.057 396.666 747.619 384.367 725.886 384.367C702.256 384.367 691.6 399.27 691.6 418.541V422.395C691.6 441.666 702.256 456.569 725.886 456.569C747.64 456.569 757.077 444.366 757.699 429.5C757.71 429.188 757.72 428.875 757.725 428.562H739.621ZM738.557 430.435V430.427L738.747 427.624H758.681L758.661 428.577C758.532 436.406 756.065 443.664 750.698 448.966C745.327 454.271 737.169 457.507 725.886 457.507C713.868 457.507 705.021 453.71 699.192 447.342C693.373 440.989 690.664 432.195 690.664 422.395V418.541C690.664 408.741 693.373 399.947 699.192 393.594C705.021 387.227 713.868 383.43 725.886 383.43C737.174 383.43 745.327 386.698 750.693 391.934C756.054 397.166 758.532 404.261 758.661 411.715L758.681 412.67H738.747L738.557 409.868V409.86V409.853C738.438 407.573 737.544 405.425 735.606 403.832C733.658 402.229 730.558 401.107 725.886 401.107C720.622 401.107 717.255 402.361 715.163 404.767C713.045 407.206 712.053 411.033 712.053 416.614V424.322C712.053 429.903 713.045 433.764 715.168 436.237C717.26 438.675 720.627 439.958 725.886 439.958C730.533 439.958 733.627 438.719 735.575 436.969C737.529 435.22 738.438 432.87 738.557 430.443V430.435Z" fill="#1F235B"/>
<path fill-rule="evenodd" clip-rule="evenodd" d="M683.616 386.043H621.084V454.905H639.959V401.46H664.741V454.905H683.616V386.043ZM663.805 402.398V455.842H684.552V385.105H620.148V455.842H640.895V402.398H663.805Z" fill="#1F235B"/>
<path fill-rule="evenodd" clip-rule="evenodd" d="M600.07 373.013C608.197 380.352 613.317 391.607 613.317 407.241V412.636C613.317 428.269 608.197 439.526 600.07 446.863C591.959 454.187 580.964 457.512 569.367 457.512C557.765 457.512 546.77 454.187 538.659 446.863C530.532 439.526 525.414 428.269 525.414 412.636V407.241C525.414 391.607 530.532 380.352 538.659 373.013C546.77 365.69 557.765 362.365 569.367 362.365C580.964 362.365 591.959 365.69 600.07 373.013ZM552.986 432.79C556.419 436.431 561.734 438.292 569.367 438.292C576.929 438.292 582.249 436.433 585.698 432.788C589.152 429.133 590.9 423.505 590.9 415.591V404.286C590.9 396.372 589.152 390.744 585.698 387.088C582.249 383.444 576.929 381.585 569.367 381.585C561.734 381.585 556.419 383.445 552.986 387.087C549.545 390.741 547.832 396.368 547.832 404.286V415.591C547.832 423.509 549.545 429.136 552.986 432.79ZM612.376 407.241C612.376 376.407 592.221 363.303 569.367 363.303C546.51 363.303 526.352 376.407 526.352 407.241V412.636C526.352 443.47 546.51 456.574 569.367 456.574C592.221 456.574 612.376 443.47 612.376 412.636V407.241ZM569.367 439.23C553.829 439.23 546.895 431.65 546.895 415.591V404.286C546.895 388.227 553.829 380.647 569.367 380.647C584.773 380.647 591.836 388.227 591.836 404.286V415.591C591.836 431.65 584.773 439.23 569.367 439.23Z" fill="#1F235B"/>
<path fill-rule="evenodd" clip-rule="evenodd" d="M521.397 386.043H459.766V401.46H481.08V454.905H500.083V401.46H521.397V386.043ZM501.02 402.398H522.334V385.105H458.828V402.398H480.142V455.842H501.02V402.398Z" fill="#1F235B"/>
<path fill-rule="evenodd" clip-rule="evenodd" d="M439.676 428.562L439.548 430.489C439.291 435.756 435.568 440.895 425.938 440.895C415.153 440.895 411.172 435.628 411.172 424.322V416.614C411.172 405.309 415.153 400.169 425.938 400.169C435.568 400.169 439.291 404.795 439.548 409.805L439.676 411.732H457.781C457.776 411.418 457.766 411.105 457.752 410.794C457.113 396.666 447.672 384.367 425.938 384.367C402.313 384.367 391.655 399.27 391.655 418.541V422.395C391.655 441.666 402.313 456.569 425.938 456.569C447.695 456.569 457.135 444.366 457.754 429.5C457.767 429.188 457.776 428.875 457.781 428.562H439.676ZM438.612 430.435L438.613 430.427L438.801 427.624H458.734L458.718 428.577C458.587 436.406 456.117 443.664 450.751 448.966C445.382 454.271 437.224 457.507 425.938 457.507C413.92 457.507 405.077 453.71 399.247 447.342C393.429 440.989 390.719 432.195 390.719 422.395V418.541C390.719 408.741 393.429 399.947 399.247 393.594C405.077 387.227 413.92 383.43 425.938 383.43C437.228 383.43 445.381 386.698 450.748 391.934C456.111 397.166 458.587 404.261 458.718 411.715L458.735 412.67H438.801L438.612 409.86V409.853C438.495 407.573 437.599 405.425 435.663 403.832C433.714 402.229 430.611 401.107 425.938 401.107C420.677 401.107 417.309 402.361 415.219 404.767C413.1 407.206 412.11 411.033 412.11 416.614V424.322C412.11 429.903 413.1 433.764 415.222 436.237C417.314 438.675 420.683 439.958 425.938 439.958C430.588 439.958 433.681 438.719 435.633 436.969C437.583 435.22 438.494 432.87 438.612 430.443V430.435Z" fill="#1F235B"/>
<path fill-rule="evenodd" clip-rule="evenodd" d="M315.594 422.395C315.594 441.666 325.866 456.569 349.876 456.569C372.461 456.569 382.294 444.668 382.97 431.298C382.986 430.987 382.997 430.674 383.003 430.361H364.899L364.77 432.288C364.514 436.527 360.533 441.28 350.261 441.28C338.761 441.28 334.255 436.063 334.212 424.489C334.212 424.434 334.212 424.378 334.212 424.322V423.552H383.003V417.641C383.003 397.857 373.63 384.367 350.261 384.367C326.508 384.367 315.594 399.27 315.594 418.541V422.395ZM335.149 424.489H383.94V417.641C383.94 407.617 381.567 399.037 376.092 392.958C370.6 386.86 362.127 383.43 350.261 383.43C338.181 383.43 329.244 387.225 323.334 393.59C317.435 399.94 314.656 408.736 314.656 418.541V422.395C314.656 432.186 317.267 440.983 323.038 447.339C328.822 453.712 337.67 457.507 349.876 457.507C361.597 457.507 370.061 454.344 375.637 449.316C381.218 444.284 383.807 437.472 383.94 430.378L383.958 429.422H364.022L363.835 432.225L363.835 432.231C363.723 434.068 362.807 436.064 360.712 437.621C358.608 439.186 355.26 440.343 350.261 440.343C344.604 440.343 340.905 439.051 338.591 436.548C336.284 434.053 335.17 430.156 335.149 424.489ZM334.34 412.374C334.366 412.056 334.397 411.743 334.432 411.437C335.422 402.713 339.953 398.756 349.876 398.756C359.552 398.756 363.594 402.713 364.668 411.437C364.706 411.743 364.74 412.056 364.77 412.374H334.34ZM335.375 411.437H363.723C363.211 407.396 362.054 404.581 360.098 402.73C357.987 400.732 354.77 399.694 349.876 399.694C344.849 399.694 341.428 400.735 339.168 402.749C337.088 404.604 335.847 407.416 335.375 411.437Z" fill="#1F235B"/>
<path fill-rule="evenodd" clip-rule="evenodd" d="M273.563 454.9H293.079V382.184H322.354V364.969H244.031V382.184H273.563V454.9ZM272.626 383.122V455.837H294.017V383.122H323.292V364.031H243.094V383.122H272.626Z" fill="#1F235B"/>
</g>
</g>
</g>
<defs>
<linearGradient id="paint0_linear_679_105" x1="141.705" y1="317.76" x2="141.705" y2="411.569" gradientUnits="userSpaceOnUse">
<stop stop-color="#C7D7FE"/>
<stop offset="1" stop-color="#E0EAFF"/>
</linearGradient>
<clipPath id="clip0_679_105">
<rect width="719.648" height="164.491" fill="white" transform="translate(40.1719 317.756)"/>
</clipPath>
</defs>
</svg>
